<svg width="91" height="20" viewBox="0 0 91 20" fill="none" xmlns="http://www.w3.org/2000/svg">
<path d="M0.201705 19V0.818181H6.55824C7.82481 0.818181 8.86944 1.03717 9.69212 1.47514C10.5148 1.9072 11.1274 2.49017 11.5298 3.22408C11.9323 3.95206 12.1335 4.75994 12.1335 5.64773C12.1335 6.42898 11.9944 7.0741 11.7163 7.5831C11.444 8.09209 11.083 8.49455 10.6332 8.79048C10.1893 9.08641 9.70691 9.3054 9.18608 9.44744V9.625C9.74242 9.66051 10.3017 9.85582 10.864 10.2109C11.4263 10.5661 11.8968 11.075 12.2756 11.7379C12.6544 12.4008 12.8438 13.2116 12.8438 14.1705C12.8438 15.0819 12.6366 15.9016 12.2223 16.6296C11.808 17.3576 11.154 17.9347 10.2603 18.3608C9.3666 18.7869 8.2036 19 6.77131 19H0.201705ZM2.40341 17.0469H6.77131C8.20952 17.0469 9.23047 16.7687 9.83416 16.2124C10.4438 15.6501 10.7486 14.9695 10.7486 14.1705C10.7486 13.5549 10.5917 12.9867 10.2781 12.4659C9.96437 11.9392 9.51752 11.5189 8.9375 11.2053C8.35748 10.8857 7.67093 10.7259 6.87784 10.7259H2.40341V17.0469ZM2.40341 8.80824H6.48722C7.1501 8.80824 7.74787 8.67803 8.28054 8.41761C8.81913 8.1572 9.24527 7.79025 9.55895 7.31676C9.87855 6.84328 10.0384 6.28693 10.0384 5.64773C10.0384 4.84872 9.76018 4.17105 9.20384 3.6147C8.64749 3.05244 7.76563 2.77131 6.55824 2.77131H2.40341V8.80824ZM23.9899 8.93253V10.8857H16.0353V8.93253H23.9899ZM29.9935 19L25.0219 0.818181H27.2591L31.0589 15.6264H31.2364L35.1072 0.818181H37.593L41.4637 15.6264H41.6412L45.441 0.818181H47.6782L42.7066 19H40.4339L36.4211 4.51136H36.279L32.2662 19H29.9935ZM54.4076 19.2841C53.1765 19.2841 52.0964 18.9911 51.1672 18.4052C50.2439 17.8192 49.5218 16.9995 49.001 15.946C48.4861 14.8925 48.2286 13.6615 48.2286 12.2528C48.2286 10.8324 48.4861 9.59245 49.001 8.53303C49.5218 7.4736 50.2439 6.65092 51.1672 6.06499C52.0964 5.47905 53.1765 5.18608 54.4076 5.18608C55.6386 5.18608 56.7158 5.47905 57.6391 6.06499C58.5683 6.65092 59.2904 7.4736 59.8053 8.53303C60.3261 9.59245 60.5866 10.8324 60.5866 12.2528C60.5866 13.6615 60.3261 14.8925 59.8053 15.946C59.2904 16.9995 58.5683 17.8192 57.6391 18.4052C56.7158 18.9911 55.6386 19.2841 54.4076 19.2841ZM54.4076 17.402C55.3427 17.402 56.1121 17.1623 56.7158 16.6829C57.3195 16.2035 57.7664 15.5732 58.0564 14.7919C58.3464 14.0107 58.4914 13.1643 58.4914 12.2528C58.4914 11.3414 58.3464 10.4921 58.0564 9.7049C57.7664 8.91773 57.3195 8.28149 56.7158 7.79616C56.1121 7.31084 55.3427 7.06818 54.4076 7.06818C53.4724 7.06818 52.703 7.31084 52.0993 7.79616C51.4957 8.28149 51.0488 8.91773 50.7588 9.7049C50.4688 10.4921 50.3238 11.3414 50.3238 12.2528C50.3238 13.1643 50.4688 14.0107 50.7588 14.7919C51.0488 15.5732 51.4957 16.2035 52.0993 16.6829C52.703 17.1623 53.4724 17.402 54.4076 17.402ZM63.7848 19V5.36364H65.8089V7.4233H65.951C66.1996 6.74858 66.6494 6.20111 67.3004 5.78089C67.9515 5.36068 68.6854 5.15057 69.5021 5.15057C69.656 5.15057 69.8484 5.15353 70.0792 5.15945C70.31 5.16536 70.4846 5.17424 70.603 5.18608V7.31676C70.532 7.29901 70.3692 7.27237 70.1147 7.23686C69.8661 7.19543 69.6027 7.17472 69.3246 7.17472C68.6617 7.17472 68.0698 7.3138 67.549 7.59197C67.0341 7.86423 66.6257 8.24302 66.3239 8.72834C66.0279 9.20774 65.88 9.75521 65.88 10.3707V19H63.7848ZM75.1817 0.818181V19H73.0866V0.818181H75.1817ZM84.1683 19.2841C83.032 19.2841 82.0288 18.997 81.1587 18.4229C80.2887 17.8429 79.6081 17.0262 79.1168 15.9727C78.6256 14.9132 78.38 13.6615 78.38 12.2173C78.38 10.785 78.6256 9.54214 79.1168 8.48864C79.6081 7.43513 80.2917 6.62133 81.1676 6.04723C82.0436 5.47313 83.0556 5.18608 84.2038 5.18608C85.0916 5.18608 85.793 5.33404 86.3079 5.62997C86.8287 5.91998 87.2253 6.25142 87.4975 6.62429C87.7757 6.99124 87.9917 7.29309 88.1456 7.52983H88.3232V0.818181H90.4183V19H88.3942V16.9048H88.1456C87.9917 17.1534 87.7727 17.4671 87.4886 17.8459C87.2045 18.2187 86.7991 18.5531 86.2724 18.8491C85.7456 19.1391 85.0443 19.2841 84.1683 19.2841ZM84.4524 17.402C85.2929 17.402 86.0031 17.183 86.5831 16.745C87.1631 16.3011 87.604 15.6886 87.9059 14.9073C88.2077 14.1201 88.3587 13.2116 88.3587 12.1818C88.3587 11.1638 88.2107 10.2731 87.9148 9.50959C87.6188 8.74018 87.1809 8.1424 86.6009 7.71626C86.0208 7.28421 85.3047 7.06818 84.4524 7.06818C83.5646 7.06818 82.8248 7.29605 82.233 7.75178C81.647 8.20159 81.2061 8.81416 80.9102 9.58949C80.6201 10.3589 80.4751 11.223 80.4751 12.1818C80.4751 13.1525 80.6231 14.0343 80.919 14.8274C81.2209 15.6146 81.6648 16.242 82.2507 16.7095C82.8426 17.1712 83.5765 17.402 84.4524 17.402Z" fill="white"/>
</svg>
